# xmcd
#
# Track frame offsets:
#	150
#	18231
#	32477
#	71394
#	87454
#	105005
#	127265
#	145290
#	168518
#	189207
#	203554
#
# Disc length: 2992 seconds
#
# Revision: 0
# Processed by: cddbd v1.4PL0 Copyright (c) Steve Scherf et al.
# Submitted via: dBpowerAMP V4.0
#
DISCID=880bae0b
DTITLE=Nuevo intérprete - Nuevo título
DYEAR=1900
DGENRE=
TTITLE0=Iguana
TTITLE1=Castles in the sky
TTITLE2=NewStuff2
TTITLE3=Absorbing mechanism
TTITLE4=Journey
TTITLE5=Lucky Star
TTITLE6=L'amour Toujours
TTITLE7=Don't wanna loose my way
TTITLE8=Rose Rouge
TTITLE9=Take me away
TTITLE10=Tremble
EXTD=dj monda
EXTT0=
EXTT1=
EXTT2=
EXTT3=
EXTT4=
EXTT5=
EXTT6=
EXTT7=
EXTT8=
EXTT9=
EXTT10=
PLAYORDER=
